# xmcd
#
# Track frame offsets:
#	150
#	10907
#	21020
#	42346
#	57073
#	71716
#	90531
#	102004
#	115254
#	129940
#	144266
#	163526
#	177311
#	216638
#	239260
#	257741
#	275583
#	298239
#	317126
#	342565
#
# Disc length: 4760 seconds
#
# Revision: 0
# Processed by: cddbd v1.5.1PL0 Copyright (c) Steve Scherf et al.
# Submitted via: dBpowerAMP V4.0
#
DISCID=2a129614
DTITLE=Louis Armstrong - The very best of (2000) CD 1/2
DYEAR=2000
DGENRE=Blues
TTITLE0=Hello, Dolly !
TTITLE1=What a wonderful world
TTITLE2=Jeepers Creepers
TTITLE3=King of the Zulus
TTITLE4=Cabaret
TTITLE5=Let's call the whole thing off
TTITLE6=Alexander's ragtime band
TTITLE7=I gotta right to sing the blues
TTITLE8=You can't lose a broken heart
TTITLE9=East of the sun (and west of the moon)
TTITLE10=Stormy weather
TTITLE11=C'est si bon
TTITLE12=Let's do it (let's fall in love)
TTITLE13=La vie en rose
TTITLE14=We'll be together again
TTITLE15=Makin' whoopee
TTITLE16=Summertime
TTITLE17=Top hat, white tie, and tails
TTITLE18=Basin street blues
TTITLE19=I'm in the mood for love
EXTD=
EXTT0=
EXTT1=
EXTT2=
EXTT3=
EXTT4=
EXTT5=
EXTT6=
EXTT7=
EXTT8=
EXTT9=
EXTT10=
EXTT11=
EXTT12=
EXTT13=
EXTT14=
EXTT15=
EXTT16=
EXTT17=
EXTT18=
EXTT19=
PLAYORDER=
